<svg fill="none" height="30" viewBox="0 0 107 30" width="107" xmlns="http://www.w3.org/2000/svg"><rect fill="#fff" height="30" rx="15" width="102.348"/><path d="m16.989 19 3.976-9.8h1.54l3.976 9.8h-2.114l-.672-1.834h-3.948l-.672 1.834zm3.346-3.444h2.758l-1.372-3.766zm7.1327 6.244v-9.94h1.568l.098 1.176c.2147-.4293.532-.7653.952-1.008.4293-.2427.924-.364 1.484-.364.6347 0 1.19.1587 1.666.476.4853.3173.8633.7607 1.134 1.33.2707.56.406 1.2133.406 1.96 0 .7373-.1353 1.3907-.406 1.96s-.6487 1.0127-1.134 1.33c-.476.3173-1.0313.476-1.666.476-.4853 0-.924-.1073-1.316-.322-.392-.224-.6953-.5227-.91-.896v3.822zm3.64-4.326c.5227 0 .938-.182 1.246-.546.3173-.3733.476-.8727.476-1.498s-.1587-1.12-.476-1.484c-.308-.3733-.7233-.56-1.246-.56-.5413 0-.966.182-1.274.546s-.462.8633-.462 1.498.154 1.134.462 1.498.7327.546 1.274.546zm5.028 4.326v-9.94h1.568l.098 1.176c.2146-.4293.532-.7653.952-1.008.4293-.2427.924-.364 1.484-.364.6346 0 1.19.1587 1.666.476.4853.3173.8633.7607 1.134 1.33.2706.56.406 1.2133.406 1.96 0 .7373-.1354 1.3907-.406 1.96-.2707.5693-.6487 1.0127-1.134 1.33-.476.3173-1.0314.476-1.666.476-.4854 0-.924-.1073-1.316-.322-.392-.224-.6954-.5227-.91-.896v3.822zm3.64-4.326c.5226 0 .938-.182 1.246-.546.3173-.3733.476-.8727.476-1.498s-.1587-1.12-.476-1.484c-.308-.3733-.7234-.56-1.246-.56-.5414 0-.966.182-1.274.546s-.462.8633-.462 1.498.154 1.134.462 1.498.7326.546 1.274.546zm5.0279 1.526v-10.22h1.876v10.22zm4.5034 2.996c-.3173 0-.6346-.0513-.952-.154-.308-.0933-.5553-.2193-.742-.378l.728-1.47c.196.1027.3594.1727.49.21.14.0467.28.07.42.07.2427 0 .4387-.07.588-.21.1587-.1307.3127-.364.462-.7l.308-.686-2.884-6.818h2.072l1.736 4.634 1.666-4.634h2.086l-3.43 8.204c-.2706.6533-.6113 1.1387-1.022 1.456-.4106.3173-.9193.476-1.526.476zm9.8521-2.996v-7.14h1.568l.084 1.288c.196-.476.4947-.84.896-1.092.4013-.2613.8727-.392 1.414-.392 1.8107 0 2.716 1.1433 2.716 3.43v3.906h-1.876v-3.92c0-1.12-.448-1.68-1.344-1.68-.4947 0-.882.1727-1.162.518s-.42.8073-.42 1.386v3.696zm11.6556.196c-.728 0-1.372-.154-1.932-.462-.5507-.3173-.98-.7607-1.288-1.33s-.462-1.2273-.462-1.974c0-.756.154-1.414.462-1.974.308-.5693.7373-1.008 1.288-1.316.56-.3173 1.204-.476 1.932-.476.7373 0 1.3813.1587 1.932.476.5506.308.98.7467 1.288 1.316.308.56.462 1.218.462 1.974 0 .7467-.154 1.4047-.462 1.974s-.7374 1.0127-1.288 1.33c-.5507.308-1.1947.462-1.932.462zm0-1.722c.5226 0 .9426-.1867 1.26-.56.3173-.3733.476-.868.476-1.484s-.1587-1.1107-.476-1.484c-.3174-.3733-.7374-.56-1.26-.56-.5227 0-.9427.1867-1.26.56-.3174.3733-.476.868-.476 1.484s.1586 1.1107.476 1.484c.3173.3733.7373.56 1.26.56zm6.4007 1.526-2.422-7.14h2.002l1.218 4.452 1.344-4.452h1.47l1.316 4.396 1.246-4.396h1.988l-2.422 7.14h-1.47l-1.4-4.34-1.4 4.34z" fill="#333"/></svg>