<svg fill="none" height="48" viewBox="0 0 48 48" width="48" xmlns="http://www.w3.org/2000/svg"><path d="m48 0h-48v48h48z" fill="#ec111a"/><g fill="#fff"><path d="m32.3363 14.9674h-8.335c-2.2701.0023-4.4598.8405-6.1513 2.3546-1.6914 1.514-2.7661 3.598-3.0189 5.854-.7764-1.4062-1.1726-2.9907-1.1495-4.5968.0232-1.6061.4649-3.1785 1.2815-4.5617.8166-1.3833 1.9799-2.5296 3.3751-3.3257 1.3951-.79621 2.9738-1.21471 4.5801-1.2142h14.3749z"/><path d="m15.6688 33.4391h8.335c2.2701-.0023 4.4599-.8405 6.1513-2.3546 1.6915-1.514 2.7662-3.598 3.0189-5.854.7755 1.4065 1.171 2.9909 1.1474 4.5968s-.4653 3.178-1.2817 4.5611c-.8165 1.3831-1.9793 2.5296-3.3739 3.3262-1.3946.7967-2.9728 1.216-4.5789 1.2168h-14.375z"/><path d="m24.0015 31.6225c4.0968 0 7.418-3.3212 7.418-7.418 0-4.0969-3.3212-7.418-7.418-7.418-4.0969 0-7.418 3.3211-7.418 7.418 0 4.0968 3.3211 7.418 7.418 7.418z"/></g></svg>